# xmcd CD database file
#
# Track frame offsets:
#	150
#	21465
#	40191
#	59059
#	77652
#	93151
#	113230
#	127811
#	151247
#
# Disc length: 2258 seconds
#
# Revision: 0
# Processed by: cddbd v1.5.2PL0 Copyright (c) Steve Scherf et al.
# Submitted via: CDex 1.51
#
DISCID=6b08d009
DTITLE=Grandpa Elliott - Sugar Sweet
DYEAR=2009
DGENRE=Blues
TTITLE0=Ain't Nothing You Can Do 
TTITLE1=This Little Light Of Mine 
TTITLE2=Sugar Is Sweet 
TTITLE3=Baby, What You Want Me To Do
TTITLE4=We're Gonna Make It 
TTITLE5=Share Your Love With Me 
TTITLE6=Another Saturday Night 
TTITLE7=Fannie Mae (Live) - (featuring the Playing For Change Band)
TTITLE8=Please Come Home For Christmas 
EXTD=YEAR: 2009
EXTT0=
EXTT1=
EXTT2=
EXTT3=
EXTT4=
EXTT5=
EXTT6=
EXTT7=
EXTT8=
PLAYORDER=
